<?xml version="1.0" standalone="no"?>
<!DOCTYPE svg PUBLIC "-//W3C//DTD SVG 20010904//EN"
 "http://www.w3.org/TR/2001/REC-SVG-20010904/DTD/svg10.dtd">
<svg version="1.0" xmlns="http://www.w3.org/2000/svg"
 width="500.000000pt" height="500.000000pt" viewBox="0 0 500.000000 500.000000"
 preserveAspectRatio="xMidYMid meet">
<metadata>
Created by potrace 1.14, written by Peter Selinger 2001-2017
</metadata>
<g transform="translate(0.000000,500.000000) scale(0.100000,-0.100000)"
fill="#000000" stroke="none">
<path d="M2418 4785 c-2 -1 -39 -5 -83 -9 -211 -17 -452 -68 -607 -130 -35
-14 -68 -26 -71 -26 -4 0 -58 -24 -120 -53 -233 -111 -441 -252 -606 -412
-122 -118 -194 -193 -205 -213 -5 -9 -12 -19 -16 -22 -34 -26 -179 -251 -255
-397 -229 -441 -303 -988 -200 -1486 28 -134 93 -352 134 -447 92 -214 241
-447 391 -613 203 -225 414 -386 689 -526 241 -122 555 -214 811 -237 154 -14
440 -8 545 11 452 82 789 226 1105 474 271 213 472 461 630 780 84 171 126
293 179 522 124 541 40 1116 -236 1607 -72 128 -72 130 -103 172 -200 284
-477 540 -749 692 -94 53 -244 125 -327 158 -150 60 -432 128 -602 145 -64 7
-299 14 -304 10z m-711 -530 c3 -9 3 -19 -1 -22 -7 -7 -36 16 -36 28 0 15 30
10 37 -6z m53 -10 c0 -8 -4 -15 -10 -15 -5 0 -10 7 -10 15 0 8 5 15 10 15 6 0
10 -7 10 -15z m-632 -393 c-1 -10 1 -33 5 -52 4 -21 1 -47 -7 -65 l-13 -30
-16 37 c-11 25 -28 43 -51 55 -20 9 -36 20 -36 23 0 3 18 14 40 24 22 10 40
21 40 26 0 4 9 6 19 3 11 -3 19 -12 19 -21z m-283 -199 c22 -15 46 -34 53 -42
30 -36 55 -108 58 -165 l3 -60 51 -15 c96 -26 162 -116 155 -210 -2 -17 1 -31
6 -31 5 0 0 -21 -10 -47 -15 -38 -24 -49 -44 -51 -20 -3 -24 0 -21 15 13 49
-41 107 -97 105 -16 0 -29 2 -30 6 -6 57 -46 135 -71 140 -11 2 -30 -18 -58
-60 l-41 -63 25 -3 c33 -4 82 -50 68 -64 -13 -13 -184 -14 -208 0 -16 9 -15
12 9 36 14 14 35 26 46 26 24 0 21 11 -21 84 -37 62 -32 79 16 64 33 -11 51
-38 24 -38 -6 0 -3 -9 7 -20 14 -15 21 -17 32 -9 16 14 17 36 1 43 -13 5 -12
6 31 35 18 12 7 70 -20 105 -23 29 -78 56 -114 56 -12 0 -25 3 -28 7 -8 7 57
128 86 161 27 29 44 28 92 -5z m422 -124 c101 -62 128 -162 75 -276 -32 -70
-91 -95 -99 -42 -15 100 -87 197 -163 220 -22 7 -40 17 -41 23 -1 6 -2 23 -3
39 -3 32 7 42 59 60 47 16 124 5 172 -24z m-385 -756 c34 -34 46 -92 29 -136
-18 -46 -46 -32 -48 23 -2 36 -8 50 -30 68 -32 26 -77 24 -99 -6 -16 -21 -18
-66 -4 -93 8 -14 7 -25 -3 -40 -14 -20 -15 -19 -41 11 -27 32 -30 43 -26 95 7
109 143 156 222 78z m-279 -17 c3 -8 -2 -21 -12 -30 -16 -15 -20 -15 -31 -1
-7 8 -10 22 -6 30 7 19 42 20 49 1z m-65 -173 c66 -39 80 -75 33 -91 -25 -9
-30 -7 -42 15 -15 28 -79 73 -104 73 -8 0 -15 9 -15 20 0 18 4 20 43 14 23 -4
61 -18 85 -31z m622 9 c0 -5 -12 -32 -26 -61 -25 -53 -25 -57 -30 -350 -4
-214 -8 -298 -17 -303 -7 -4 -9 -8 -5 -8 4 0 3 -12 -3 -26 -7 -20 -6 -32 5
-49 20 -31 54 -25 88 16 50 59 101 109 110 109 15 0 78 63 72 72 -3 4 -1 8 5
8 6 0 13 11 17 25 3 14 10 25 16 25 5 0 7 4 3 9 -3 5 5 17 17 25 12 9 19 19
15 22 -4 4 1 14 11 23 23 22 42 57 42 79 0 33 83 133 173 211 65 55 113 54
173 -4 28 -27 -7 -91 -103 -191 -32 -33 -80 -87 -108 -120 -27 -32 -55 -65
-62 -72 -7 -7 -13 -16 -13 -20 0 -4 -14 -21 -30 -39 -17 -18 -30 -37 -30 -42
0 -6 -4 -11 -10 -11 -5 0 -10 -5 -10 -10 0 -10 -8 -22 -37 -55 -7 -7 -13 -21
-13 -29 0 -9 -4 -16 -10 -16 -5 0 -10 -10 -10 -23 0 -13 -3 -27 -7 -31 -4 -3
-8 -12 -10 -19 -11 -52 -28 -104 -38 -117 -6 -8 -17 -28 -24 -45 -15 -40 -68
-75 -102 -68 -25 5 -59 -20 -45 -34 11 -11 -65 -73 -140 -114 -66 -36 -74 -45
-105 -105 -19 -36 -39 -70 -46 -76 -9 -7 -29 13 -73 74 -34 46 -73 101 -86
124 l-24 41 51 149 c31 87 62 160 76 175 14 15 26 33 27 40 13 73 30 136 38
147 6 6 7 12 3 12 -4 0 -2 6 4 13 6 8 8 17 4 20 -3 4 0 7 7 7 7 0 11 3 8 6 -4
3 -2 20 4 37 6 18 12 59 13 92 4 64 6 76 22 115 39 92 74 185 88 233 12 42 27
65 60 96 43 39 65 50 65 33z m-726 -323 c-3 -5 -10 -7 -15 -3 -5 3 -7 10 -3
15 3 5 10 7 15 3 5 -3 7 -10 3 -15z m226 -481 c25 -13 46 -30 48 -39 4 -24
-42 -33 -78 -14 -16 8 -45 15 -65 15 -19 0 -35 3 -35 8 0 4 -3 17 -6 30 -6 21
-3 22 43 22 31 0 65 -8 93 -22z"/>
<path d="M1604 2329 c-18 -20 -18 -21 6 -39 43 -33 78 -44 95 -30 24 20 18 33
-30 63 -25 15 -47 27 -49 27 -2 0 -11 -9 -22 -21z"/>
</g>
</svg>
